M48
; DRILL file {KiCad 7.0.9-1.fc38} date Mon 22 Jan 2024 08:05:44 AM CST
; FORMAT={-:-/ absolute / inch / decimal}
; #@! TF.CreationDate,2024-01-22T08:05:44+08:00
; #@! TF.GenerationSoftware,Kicad,Pcbnew,7.0.9-1.fc38
; #@! TF.FileFunction,Plated,1,2,PTH
FMAT,2
INCH
; #@! TA.AperFunction,Plated,PTH,ViaDrill
T1C0.0157
; #@! TA.AperFunction,Plated,PTH,ComponentDrill
T2C0.0236
%
G90
G05
T1
X0.5801Y-0.493
X0.5801Y-0.543
X0.6401Y-0.493
X0.6401Y-0.543
X0.6851Y-0.6214
X0.6901Y-1.0214
X0.7001Y-0.493
X0.7001Y-0.543
X0.7209Y-1.1348
X0.7524Y-1.1348
X0.7839Y-1.1348
X0.8154Y-1.1348
X0.8469Y-1.1348
X0.8776Y-1.0258
X0.8801Y-0.498
X0.9451Y-0.8614
X0.9501Y-0.498
X0.9501Y-0.563
X1.0101Y-0.498
X1.0101Y-0.563
X1.0301Y-0.9764
T2
G00X0.6101Y-1.0852
M15
G01X0.6101Y-1.1285
M16
G05
G00X0.6101Y-1.2596
M15
G01X0.6101Y-1.2832
M16
G05
G00X0.9502Y-1.0852
M15
G01X0.9502Y-1.1285
M16
G05
G00X0.9502Y-1.2596
M15
G01X0.9502Y-1.2832
M16
G05
T0
M30
