%TF.GenerationSoftware,KiCad,Pcbnew,7.0.9-1.fc38*%
%TF.CreationDate,2024-01-22T08:05:40+08:00*%
%TF.ProjectId,PD_Decoy,50445f44-6563-46f7-992e-6b696361645f,rev?*%
%TF.SameCoordinates,Original*%
%TF.FileFunction,Paste,Top*%
%TF.FilePolarity,Positive*%
%FSLAX46Y46*%
G04 Gerber Fmt 4.6, Leading zero omitted, Abs format (unit mm)*
G04 Created by KiCad (PCBNEW 7.0.9-1.fc38) date 2024-01-22 08:05:40*
%MOMM*%
%LPD*%
G01*
G04 APERTURE LIST*
G04 Aperture macros list*
%AMRoundRect*
0 Rectangle with rounded corners*
0 $1 Rounding radius*
0 $2 $3 $4 $5 $6 $7 $8 $9 X,Y pos of 4 corners*
0 Add a 4 corners polygon primitive as box body*
4,1,4,$2,$3,$4,$5,$6,$7,$8,$9,$2,$3,0*
0 Add four circle primitives for the rounded corners*
1,1,$1+$1,$2,$3*
1,1,$1+$1,$4,$5*
1,1,$1+$1,$6,$7*
1,1,$1+$1,$8,$9*
0 Add four rect primitives between the rounded corners*
20,1,$1+$1,$2,$3,$4,$5,0*
20,1,$1+$1,$4,$5,$6,$7,0*
20,1,$1+$1,$6,$7,$8,$9,0*
20,1,$1+$1,$8,$9,$2,$3,0*%
G04 Aperture macros list end*
%ADD10RoundRect,0.250000X-0.250000X-0.475000X0.250000X-0.475000X0.250000X0.475000X-0.250000X0.475000X0*%
%ADD11R,0.600000X1.450000*%
%ADD12R,0.300000X1.450000*%
%ADD13RoundRect,0.243750X0.243750X0.456250X-0.243750X0.456250X-0.243750X-0.456250X0.243750X-0.456250X0*%
%ADD14RoundRect,0.250000X-0.450000X0.262500X-0.450000X-0.262500X0.450000X-0.262500X0.450000X0.262500X0*%
%ADD15RoundRect,0.250000X0.450000X-0.262500X0.450000X0.262500X-0.450000X0.262500X-0.450000X-0.262500X0*%
%ADD16R,2.100000X3.300000*%
%ADD17R,1.500000X0.600000*%
%ADD18RoundRect,0.250000X-1.075000X0.312500X-1.075000X-0.312500X1.075000X-0.312500X1.075000X0.312500X0*%
G04 APERTURE END LIST*
D10*
%TO.C,C1*%
X18168000Y-18070000D03*
X20068000Y-18070000D03*
%TD*%
D11*
%TO.C,J1*%
X16566000Y-27199000D03*
X17366000Y-27199000D03*
D12*
X18566000Y-27199000D03*
X19566000Y-27199000D03*
X20066000Y-27199000D03*
X21066000Y-27199000D03*
D11*
X22266000Y-27199000D03*
X23066000Y-27199000D03*
X23066000Y-27199000D03*
X22266000Y-27199000D03*
D12*
X21566000Y-27199000D03*
X20566000Y-27199000D03*
X19066000Y-27199000D03*
X18066000Y-27199000D03*
D11*
X17366000Y-27199000D03*
X16566000Y-27199000D03*
%TD*%
D13*
%TO.C,D1*%
X24991000Y-16079000D03*
X23116000Y-16079000D03*
%TD*%
D14*
%TO.C,R4*%
X26164000Y-26278000D03*
X26164000Y-28103000D03*
%TD*%
D15*
%TO.C,R2*%
X24894000Y-19682000D03*
X24894000Y-17857000D03*
%TD*%
%TO.C,R3*%
X26164000Y-23197000D03*
X26164000Y-21372000D03*
%TD*%
D16*
%TO.C,U1*%
X19560000Y-21880000D03*
D17*
X16559746Y-19880000D03*
X16559746Y-20880000D03*
X16559746Y-21880000D03*
X16559746Y-22880000D03*
X16559746Y-23880000D03*
X22559746Y-23880000D03*
X22560000Y-22880000D03*
X22560000Y-21880000D03*
X22560000Y-20880000D03*
X22559746Y-19880000D03*
%TD*%
D18*
%TO.C,R1*%
X15750000Y-15825000D03*
X15750000Y-18750000D03*
%TD*%
M02*
