%TF.GenerationSoftware,KiCad,Pcbnew,7.0.9-1.fc38*%
%TF.CreationDate,2024-01-22T08:05:40+08:00*%
%TF.ProjectId,PD_Decoy,50445f44-6563-46f7-992e-6b696361645f,rev?*%
%TF.SameCoordinates,Original*%
%TF.FileFunction,Copper,L1,Top*%
%TF.FilePolarity,Positive*%
%FSLAX46Y46*%
G04 Gerber Fmt 4.6, Leading zero omitted, Abs format (unit mm)*
G04 Created by KiCad (PCBNEW 7.0.9-1.fc38) date 2024-01-22 08:05:40*
%MOMM*%
%LPD*%
G01*
G04 APERTURE LIST*
G04 Aperture macros list*
%AMRoundRect*
0 Rectangle with rounded corners*
0 $1 Rounding radius*
0 $2 $3 $4 $5 $6 $7 $8 $9 X,Y pos of 4 corners*
0 Add a 4 corners polygon primitive as box body*
4,1,4,$2,$3,$4,$5,$6,$7,$8,$9,$2,$3,0*
0 Add four circle primitives for the rounded corners*
1,1,$1+$1,$2,$3*
1,1,$1+$1,$4,$5*
1,1,$1+$1,$6,$7*
1,1,$1+$1,$8,$9*
0 Add four rect primitives between the rounded corners*
20,1,$1+$1,$2,$3,$4,$5,0*
20,1,$1+$1,$4,$5,$6,$7,0*
20,1,$1+$1,$6,$7,$8,$9,0*
20,1,$1+$1,$8,$9,$2,$3,0*%
G04 Aperture macros list end*
%TA.AperFunction,SMDPad,CuDef*%
%ADD10RoundRect,0.250000X-0.250000X-0.475000X0.250000X-0.475000X0.250000X0.475000X-0.250000X0.475000X0*%
%TD*%
%TA.AperFunction,SMDPad,CuDef*%
%ADD11R,0.600000X1.450000*%
%TD*%
%TA.AperFunction,SMDPad,CuDef*%
%ADD12R,0.300000X1.450000*%
%TD*%
%TA.AperFunction,ComponentPad*%
%ADD13O,1.000000X2.100000*%
%TD*%
%TA.AperFunction,ComponentPad*%
%ADD14O,1.000000X1.600000*%
%TD*%
%TA.AperFunction,SMDPad,CuDef*%
%ADD15RoundRect,0.243750X0.243750X0.456250X-0.243750X0.456250X-0.243750X-0.456250X0.243750X-0.456250X0*%
%TD*%
%TA.AperFunction,SMDPad,CuDef*%
%ADD16RoundRect,0.250000X-0.450000X0.262500X-0.450000X-0.262500X0.450000X-0.262500X0.450000X0.262500X0*%
%TD*%
%TA.AperFunction,SMDPad,CuDef*%
%ADD17RoundRect,0.250000X0.450000X-0.262500X0.450000X0.262500X-0.450000X0.262500X-0.450000X-0.262500X0*%
%TD*%
%TA.AperFunction,SMDPad,CuDef*%
%ADD18R,2.100000X3.300000*%
%TD*%
%TA.AperFunction,SMDPad,CuDef*%
%ADD19R,1.500000X0.600000*%
%TD*%
%TA.AperFunction,SMDPad,CuDef*%
%ADD20RoundRect,0.250000X-1.075000X0.312500X-1.075000X-0.312500X1.075000X-0.312500X1.075000X0.312500X0*%
%TD*%
%TA.AperFunction,ViaPad*%
%ADD21C,0.800000*%
%TD*%
%TA.AperFunction,Conductor*%
%ADD22C,0.250000*%
%TD*%
%TA.AperFunction,Conductor*%
%ADD23C,1.000000*%
%TD*%
%TA.AperFunction,Conductor*%
%ADD24C,0.500000*%
%TD*%
%TA.AperFunction,Conductor*%
%ADD25C,0.350000*%
%TD*%
G04 APERTURE END LIST*
D10*
%TO.P,C1,1*%
%TO.N,VDD*%
X18168000Y-18070000D03*
%TO.P,C1,2*%
%TO.N,GND*%
X20068000Y-18070000D03*
%TD*%
D11*
%TO.P,J1,A1,GND*%
%TO.N,GND*%
X16566000Y-27199000D03*
%TO.P,J1,A4,VBUS*%
%TO.N,/VBUS*%
X17366000Y-27199000D03*
D12*
%TO.P,J1,A5,CC1*%
%TO.N,/CC1*%
X18566000Y-27199000D03*
%TO.P,J1,A6,D+*%
%TO.N,unconnected-(J1-D+-PadA6)*%
X19566000Y-27199000D03*
%TO.P,J1,A7,D-*%
%TO.N,unconnected-(J1-D--PadA7)*%
X20066000Y-27199000D03*
%TO.P,J1,A8,SBU1*%
%TO.N,unconnected-(J1-SBU1-PadA8)*%
X21066000Y-27199000D03*
D11*
%TO.P,J1,A9,VBUS*%
%TO.N,/VBUS*%
X22266000Y-27199000D03*
%TO.P,J1,A12,GND*%
%TO.N,GND*%
X23066000Y-27199000D03*
%TO.P,J1,B1,GND*%
X23066000Y-27199000D03*
%TO.P,J1,B4,VBUS*%
%TO.N,/VBUS*%
X22266000Y-27199000D03*
D12*
%TO.P,J1,B5,CC2*%
%TO.N,/CC2*%
X21566000Y-27199000D03*
%TO.P,J1,B6,D+*%
%TO.N,unconnected-(J1-D+-PadB6)*%
X20566000Y-27199000D03*
%TO.P,J1,B7,D-*%
%TO.N,unconnected-(J1-D--PadB7)*%
X19066000Y-27199000D03*
%TO.P,J1,B8,SBU2*%
%TO.N,unconnected-(J1-SBU2-PadB8)*%
X18066000Y-27199000D03*
D11*
%TO.P,J1,B9,VBUS*%
%TO.N,/VBUS*%
X17366000Y-27199000D03*
%TO.P,J1,B12,GND*%
%TO.N,GND*%
X16566000Y-27199000D03*
D13*
%TO.P,J1,S1,SHIELD*%
X15496000Y-28114000D03*
D14*
X15496000Y-32294000D03*
D13*
X24136000Y-28114000D03*
D14*
X24136000Y-32294000D03*
%TD*%
D15*
%TO.P,D1,1,K*%
%TO.N,Net-(D1-K)*%
X24991000Y-16079000D03*
%TO.P,D1,2,A*%
%TO.N,VDD*%
X23116000Y-16079000D03*
%TD*%
D16*
%TO.P,R4,1*%
%TO.N,Net-(U1-VBUS)*%
X26164000Y-26278000D03*
%TO.P,R4,2*%
%TO.N,/VBUS*%
X26164000Y-28103000D03*
%TD*%
D17*
%TO.P,R2,1*%
%TO.N,Net-(U1-PG)*%
X24894000Y-19682000D03*
%TO.P,R2,2*%
%TO.N,Net-(D1-K)*%
X24894000Y-17857000D03*
%TD*%
%TO.P,R3,1*%
%TO.N,GND*%
X26164000Y-23197000D03*
%TO.P,R3,2*%
%TO.N,Net-(U1-CFG1)*%
X26164000Y-21372000D03*
%TD*%
D18*
%TO.P,U1,0,GND*%
%TO.N,GND*%
X19560000Y-21880000D03*
D19*
%TO.P,U1,1,VDD*%
%TO.N,VDD*%
X16559746Y-19880000D03*
%TO.P,U1,2,CFG2*%
%TO.N,unconnected-(U1-CFG2-Pad2)*%
X16559746Y-20880000D03*
%TO.P,U1,3,CFG3*%
%TO.N,unconnected-(U1-CFG3-Pad3)*%
X16559746Y-21880000D03*
%TO.P,U1,4,DP*%
%TO.N,Net-(U1-DM)*%
X16559746Y-22880000D03*
%TO.P,U1,5,DM*%
X16559746Y-23880000D03*
%TO.P,U1,6,CC2*%
%TO.N,/CC1*%
X22559746Y-23880000D03*
%TO.P,U1,7,CC1*%
%TO.N,/CC2*%
X22560000Y-22880000D03*
%TO.P,U1,8,VBUS*%
%TO.N,Net-(U1-VBUS)*%
X22560000Y-21880000D03*
%TO.P,U1,9,CFG1*%
%TO.N,Net-(U1-CFG1)*%
X22560000Y-20880000D03*
%TO.P,U1,10,PG*%
%TO.N,Net-(U1-PG)*%
X22559746Y-19880000D03*
%TD*%
D20*
%TO.P,R1,1*%
%TO.N,/VBUS*%
X15750000Y-15825000D03*
%TO.P,R1,2*%
%TO.N,VDD*%
X15750000Y-18750000D03*
%TD*%
D21*
%TO.N,GND*%
X16258000Y-13793000D03*
X17782000Y-13793000D03*
X14734000Y-13793000D03*
X17782000Y-12523000D03*
X14734000Y-12523000D03*
X16258000Y-12523000D03*
%TO.N,/VBUS*%
X18310000Y-28823000D03*
X25656000Y-14301000D03*
X24132000Y-14301000D03*
X24132000Y-12650000D03*
X22354000Y-12650000D03*
X17528000Y-25944000D03*
X19110000Y-28823000D03*
X19910000Y-28823000D03*
X21510000Y-28823000D03*
X22290500Y-26054795D03*
X17401000Y-15784000D03*
X20710000Y-28823000D03*
X25656000Y-12650000D03*
%TO.N,Net-(U1-VBUS)*%
X24005000Y-21880000D03*
X26164000Y-24801000D03*
%TD*%
D22*
%TO.N,VDD*%
X18036000Y-16546000D02*
X18036000Y-18070000D01*
X18798000Y-15784000D02*
X18036000Y-16546000D01*
X16305000Y-19625254D02*
X16559746Y-19880000D01*
X16559746Y-19546254D02*
X18036000Y-18070000D01*
X16559746Y-19880000D02*
X16559746Y-19546254D01*
X23116000Y-15784000D02*
X18798000Y-15784000D01*
%TO.N,GND*%
X16512000Y-26054256D02*
X16566000Y-26108256D01*
X23386396Y-27199000D02*
X23066000Y-27199000D01*
D23*
X24136000Y-28114000D02*
X23386396Y-27364396D01*
X15651000Y-28114000D02*
X16366000Y-27399000D01*
D24*
X16566000Y-26108256D02*
X16566000Y-27199000D01*
D23*
X16366000Y-27399000D02*
X16366000Y-27199000D01*
D22*
X19560000Y-22769000D02*
X16512000Y-25817000D01*
X19936000Y-18070000D02*
X19936000Y-21504000D01*
X19560000Y-21880000D02*
X19560000Y-22769000D01*
X16566000Y-27199000D02*
X16411000Y-27199000D01*
D23*
X15496000Y-28114000D02*
X15651000Y-28114000D01*
D22*
X19936000Y-21504000D02*
X19560000Y-21880000D01*
X16537802Y-26080058D02*
X16566000Y-26051860D01*
X16512000Y-25817000D02*
X16512000Y-26054256D01*
%TO.N,Net-(D1-K)*%
X24894000Y-17769000D02*
X24894000Y-15881000D01*
X24894000Y-15881000D02*
X24991000Y-15784000D01*
D24*
%TO.N,/VBUS*%
X18165660Y-28823000D02*
X18310000Y-28823000D01*
D22*
X17528000Y-26071000D02*
X17528000Y-25944000D01*
X25742000Y-29795000D02*
X22867051Y-29795000D01*
D24*
X19910000Y-28823000D02*
X20710000Y-28823000D01*
X19110000Y-28823000D02*
X19910000Y-28823000D01*
D22*
X22867051Y-29795000D02*
X21866340Y-28794289D01*
D24*
X22266000Y-26079295D02*
X22266000Y-27199000D01*
X17765660Y-28423000D02*
X18165660Y-28823000D01*
D22*
X16258000Y-15760500D02*
X17377500Y-15760500D01*
D24*
X20710000Y-28823000D02*
X21466340Y-28823000D01*
D22*
X22290500Y-26054795D02*
X22266000Y-26079295D01*
X26164000Y-29373000D02*
X25742000Y-29795000D01*
X26164000Y-28103000D02*
X26164000Y-29373000D01*
X17655000Y-25944000D02*
X17655000Y-25944000D01*
X17366000Y-26233000D02*
X17528000Y-26071000D01*
D25*
X17366000Y-28023340D02*
X17765660Y-28423000D01*
D24*
X21510000Y-28779340D02*
X21866340Y-28423000D01*
D25*
X21866340Y-28423000D02*
X22266000Y-28023340D01*
D22*
X17528000Y-25944000D02*
X17655000Y-25944000D01*
X17377500Y-15760500D02*
X17401000Y-15784000D01*
D24*
X18310000Y-28823000D02*
X19110000Y-28823000D01*
X21466340Y-28823000D02*
X21510000Y-28823000D01*
X21510000Y-28823000D02*
X21510000Y-28779340D01*
D22*
X21866340Y-28794289D02*
X21866340Y-28423000D01*
D24*
X21466340Y-28823000D02*
X21466340Y-28823000D01*
D25*
X17366000Y-27199000D02*
X17366000Y-28023340D01*
D24*
X17366000Y-27199000D02*
X17366000Y-26233000D01*
D25*
X22266000Y-28023340D02*
X22266000Y-27199000D01*
D22*
%TO.N,/CC1*%
X22481000Y-23958746D02*
X22481000Y-24450492D01*
X22257492Y-24674000D02*
X19052000Y-24674000D01*
X18566000Y-25160000D02*
X18566000Y-27199000D01*
X19052000Y-24674000D02*
X18566000Y-25160000D01*
X22481000Y-24450492D02*
X22257492Y-24674000D01*
X22559746Y-23880000D02*
X22481000Y-23958746D01*
%TO.N,/CC2*%
X23634746Y-24505000D02*
X23634746Y-23255000D01*
X23634746Y-23255000D02*
X23259746Y-22880000D01*
X22916746Y-25223000D02*
X23634746Y-24505000D01*
X21719000Y-25223000D02*
X22916746Y-25223000D01*
X22560000Y-22880000D02*
X21859746Y-22880000D01*
X21566000Y-25376000D02*
X21719000Y-25223000D01*
X23259746Y-22880000D02*
X22560000Y-22880000D01*
X21566000Y-27199000D02*
X21566000Y-25376000D01*
%TO.N,Net-(U1-PG)*%
X23116000Y-19594000D02*
X24894000Y-19594000D01*
X22559746Y-19880000D02*
X22830000Y-19880000D01*
X22830000Y-19880000D02*
X23116000Y-19594000D01*
%TO.N,Net-(U1-CFG1)*%
X22560000Y-20880000D02*
X25672000Y-20880000D01*
X25672000Y-20880000D02*
X26164000Y-21372000D01*
%TO.N,Net-(U1-VBUS)*%
X26164000Y-26278000D02*
X26164000Y-24801000D01*
X24005000Y-21880000D02*
X22560000Y-21880000D01*
%TO.N,Net-(U1-DM)*%
X16559746Y-22880000D02*
X16559746Y-23880000D01*
%TD*%
%TA.AperFunction,Conductor*%
%TO.N,/VBUS*%
G36*
X27250039Y-12161685D02*
G01*
X27295794Y-12214489D01*
X27307000Y-12266000D01*
X27307000Y-14558000D01*
X27287315Y-14625039D01*
X27234511Y-14670794D01*
X27183000Y-14682000D01*
X20573000Y-14682000D01*
X20505961Y-14662315D01*
X20460206Y-14609511D01*
X20449000Y-14558000D01*
X20449000Y-12266000D01*
X20468685Y-12198961D01*
X20521489Y-12153206D01*
X20573000Y-12142000D01*
X27183000Y-12142000D01*
X27250039Y-12161685D01*
G37*
%TD.AperFunction*%
%TD*%
%TA.AperFunction,Conductor*%
%TO.N,GND*%
G36*
X12329000Y-15317000D02*
G01*
X13949151Y-15317000D01*
X13935001Y-15359703D01*
X13935001Y-15359704D01*
X13935000Y-15359704D01*
X13924500Y-15462483D01*
X13924500Y-16187501D01*
X13924501Y-16187519D01*
X13935000Y-16290296D01*
X13935001Y-16290299D01*
X13974501Y-16409500D01*
X13990186Y-16456834D01*
X14082288Y-16606156D01*
X14206344Y-16730212D01*
X14355666Y-16822314D01*
X14522203Y-16877499D01*
X14624991Y-16888000D01*
X16875008Y-16887999D01*
X16977797Y-16877499D01*
X17144334Y-16822314D01*
X17221405Y-16774776D01*
X17288796Y-16756337D01*
X17355459Y-16777260D01*
X17400229Y-16830902D01*
X17410500Y-16880316D01*
X17410500Y-16989770D01*
X17390815Y-17056809D01*
X17374181Y-17077451D01*
X17325289Y-17126342D01*
X17233187Y-17275663D01*
X17233185Y-17275668D01*
X17208698Y-17349567D01*
X17178001Y-17442203D01*
X17178001Y-17442204D01*
X17178000Y-17442204D01*
X17167500Y-17544983D01*
X17167500Y-17588642D01*
X17147815Y-17655681D01*
X17095011Y-17701436D01*
X17025853Y-17711380D01*
X17004498Y-17706349D01*
X16977794Y-17697500D01*
X16977795Y-17697500D01*
X16875010Y-17687000D01*
X14624998Y-17687000D01*
X14624981Y-17687001D01*
X14522203Y-17697500D01*
X14522200Y-17697501D01*
X14355668Y-17752685D01*
X14355663Y-17752687D01*
X14206342Y-17844789D01*
X14082289Y-17968842D01*
X13990187Y-18118163D01*
X13990185Y-18118168D01*
X13973170Y-18169516D01*
X13935001Y-18284703D01*
X13935001Y-18284704D01*
X13935000Y-18284704D01*
X13924500Y-18387483D01*
X13924500Y-19112501D01*
X13924501Y-19112519D01*
X13935000Y-19215296D01*
X13935001Y-19215299D01*
X13990185Y-19381831D01*
X13990187Y-19381836D01*
X14025069Y-19438388D01*
X14082288Y-19531156D01*
X14206344Y-19655212D01*
X14355666Y-19747314D01*
X14522203Y-19802499D01*
X14624991Y-19813000D01*
X15185246Y-19812999D01*
X15252285Y-19832683D01*
X15298040Y-19885487D01*
X15309246Y-19936999D01*
X15309246Y-20227869D01*
X15309247Y-20227876D01*
X15315654Y-20287482D01*
X15333999Y-20336666D01*
X15338983Y-20406358D01*
X15333999Y-20423331D01*
X15315656Y-20472511D01*
X15315655Y-20472515D01*
X15315655Y-20472517D01*
X15309246Y-20532127D01*
X15309246Y-20532134D01*
X15309246Y-20532135D01*
X15309246Y-21227870D01*
X15309247Y-21227876D01*
X15315654Y-21287482D01*
X15333999Y-21336666D01*
X15338983Y-21406358D01*
X15333999Y-21423331D01*
X15315656Y-21472511D01*
X15315655Y-21472515D01*
X15315655Y-21472517D01*
X15309246Y-21532127D01*
X15309246Y-21532134D01*
X15309246Y-21532135D01*
X15309246Y-22227870D01*
X15309247Y-22227876D01*
X15315654Y-22287482D01*
X15333999Y-22336666D01*
X15338983Y-22406358D01*
X15333999Y-22423331D01*
X15315656Y-22472511D01*
X15315655Y-22472515D01*
X15315655Y-22472517D01*
X15309246Y-22532127D01*
X15309246Y-22532134D01*
X15309246Y-22532135D01*
X15309246Y-23227870D01*
X15309247Y-23227876D01*
X15315654Y-23287482D01*
X15333999Y-23336666D01*
X15338983Y-23406358D01*
X15333999Y-23423331D01*
X15315656Y-23472511D01*
X15315655Y-23472515D01*
X15315655Y-23472517D01*
X15309246Y-23532127D01*
X15309246Y-23532134D01*
X15309246Y-23532135D01*
X15309246Y-24227870D01*
X15309247Y-24227876D01*
X15315654Y-24287483D01*
X15365948Y-24422328D01*
X15365952Y-24422335D01*
X15452198Y-24537544D01*
X15452201Y-24537547D01*
X15567410Y-24623793D01*
X15567417Y-24623797D01*
X15702263Y-24674091D01*
X15702262Y-24674091D01*
X15709190Y-24674835D01*
X15761873Y-24680500D01*
X17357618Y-24680499D01*
X17417229Y-24674091D01*
X17552077Y-24623796D01*
X17667292Y-24537546D01*
X17753542Y-24422331D01*
X17803837Y-24287483D01*
X17810246Y-24227873D01*
X17810245Y-23771934D01*
X17829929Y-23704897D01*
X17882733Y-23659142D01*
X17951892Y-23649198D01*
X18015448Y-23678223D01*
X18050427Y-23728602D01*
X18066646Y-23772088D01*
X18066649Y-23772093D01*
X18152809Y-23887187D01*
X18152812Y-23887190D01*
X18267906Y-23973350D01*
X18267913Y-23973354D01*
X18402620Y-24023596D01*
X18402627Y-24023598D01*
X18462155Y-24029999D01*
X18462172Y-24030000D01*
X18509453Y-24030000D01*
X18576492Y-24049685D01*
X18622247Y-24102489D01*
X18632191Y-24171647D01*
X18604995Y-24233043D01*
X18590709Y-24250310D01*
X18586777Y-24254632D01*
X18182211Y-24659197D01*
X18169948Y-24669022D01*
X18170131Y-24669244D01*
X18164121Y-24674215D01*
X18116772Y-24724636D01*
X18095889Y-24745519D01*
X18095877Y-24745532D01*
X18091621Y-24751017D01*
X18087837Y-24755447D01*
X18055937Y-24789418D01*
X18055936Y-24789420D01*
X18046284Y-24806976D01*
X18035610Y-24823226D01*
X18023329Y-24839061D01*
X18023324Y-24839068D01*
X18004815Y-24881838D01*
X18002245Y-24887084D01*
X17979803Y-24927906D01*
X17974822Y-24947307D01*
X17968521Y-24965710D01*
X17960562Y-24984102D01*
X17958385Y-24991597D01*
X17956593Y-24991076D01*
X17930952Y-25045143D01*
X17871634Y-25082064D01*
X17812641Y-25083884D01*
X17695747Y-25059038D01*
X17622646Y-25043500D01*
X17433354Y-25043500D01*
X17400897Y-25050398D01*
X17248197Y-25082855D01*
X17248192Y-25082857D01*
X17075270Y-25159848D01*
X17075265Y-25159851D01*
X16922129Y-25271111D01*
X16795466Y-25411785D01*
X16700821Y-25575715D01*
X16700818Y-25575722D01*
X16642327Y-25755740D01*
X16642326Y-25755744D01*
X16627849Y-25893487D01*
X16622540Y-25944000D01*
X16632824Y-26041859D01*
X16630161Y-26083413D01*
X16615500Y-26145279D01*
X16615500Y-26227271D01*
X16607682Y-26270604D01*
X16571908Y-26366517D01*
X16565501Y-26426116D01*
X16565500Y-26426127D01*
X16565500Y-27190500D01*
X16565501Y-27325000D01*
X16545817Y-27392039D01*
X16493013Y-27437794D01*
X16441501Y-27449000D01*
X15777647Y-27449000D01*
X15721543Y-27358390D01*
X15632038Y-27290799D01*
X15524160Y-27260105D01*
X15412479Y-27270454D01*
X15312078Y-27320448D01*
X15246000Y-27392930D01*
X15246000Y-26949000D01*
X15746000Y-26949000D01*
X16316000Y-26949000D01*
X16316000Y-25974000D01*
X16218155Y-25974000D01*
X16158627Y-25980401D01*
X16158620Y-25980403D01*
X16023913Y-26030645D01*
X16023906Y-26030649D01*
X15908812Y-26116809D01*
X15908809Y-26116812D01*
X15822649Y-26231906D01*
X15822645Y-26231913D01*
X15772403Y-26366620D01*
X15772401Y-26366627D01*
X15766000Y-26426155D01*
X15766000Y-26519446D01*
X15746315Y-26586485D01*
X15746000Y-26586828D01*
X15746000Y-26949000D01*
X15246000Y-26949000D01*
X15246000Y-26590633D01*
X15244053Y-26590931D01*
X15244047Y-26590933D01*
X15053342Y-26661562D01*
X15053335Y-26661565D01*
X14880732Y-26769149D01*
X14733331Y-26909264D01*
X14733330Y-26909266D01*
X14617143Y-27076195D01*
X14536940Y-27263092D01*
X14496000Y-27462309D01*
X14496000Y-27864000D01*
X15196000Y-27864000D01*
X15196000Y-28364000D01*
X14496000Y-28364000D01*
X14496000Y-28714713D01*
X14511418Y-28866338D01*
X14572299Y-29060381D01*
X14572304Y-29060391D01*
X14671005Y-29238215D01*
X14671005Y-29238216D01*
X14803478Y-29392530D01*
X14803479Y-29392531D01*
X14964304Y-29517018D01*
X15146907Y-29606589D01*
X15246000Y-29632244D01*
X15246000Y-28830110D01*
X15270457Y-28869610D01*
X15359962Y-28937201D01*
X15467840Y-28967895D01*
X15579521Y-28957546D01*
X15679922Y-28907552D01*
X15746000Y-28835069D01*
X15746000Y-29637366D01*
X15747944Y-29637069D01*
X15747945Y-29637069D01*
X15938660Y-29566436D01*
X15938664Y-29566434D01*
X16111267Y-29458850D01*
X16258668Y-29318735D01*
X16258669Y-29318733D01*
X16374855Y-29151806D01*
X16378234Y-29143931D01*
X16422758Y-29090084D01*
X16489325Y-29068857D01*
X16556801Y-29086988D01*
X16567663Y-29094440D01*
X16635767Y-29146698D01*
X16775764Y-29204687D01*
X16888280Y-29219500D01*
X16888287Y-29219500D01*
X16963713Y-29219500D01*
X16963720Y-29219500D01*
X17076236Y-29204687D01*
X17216233Y-29146698D01*
X17249778Y-29120957D01*
X17314942Y-29095763D01*
X17383387Y-29109800D01*
X17412944Y-29131652D01*
X17485270Y-29203978D01*
X17504976Y-29229659D01*
X17577466Y-29355214D01*
X17577465Y-29355214D01*
X17704129Y-29495888D01*
X17857265Y-29607148D01*
X17857270Y-29607151D01*
X18030192Y-29684142D01*
X18030197Y-29684144D01*
X18215354Y-29723500D01*
X18215355Y-29723500D01*
X18404644Y-29723500D01*
X18404646Y-29723500D01*
X18589803Y-29684144D01*
X18659564Y-29653083D01*
X18728813Y-29643798D01*
X18760434Y-29653083D01*
X18830197Y-29684144D01*
X19015354Y-29723500D01*
X19015355Y-29723500D01*
X19204644Y-29723500D01*
X19204646Y-29723500D01*
X19389803Y-29684144D01*
X19459564Y-29653083D01*
X19528813Y-29643798D01*
X19560434Y-29653083D01*
X19630197Y-29684144D01*
X19815354Y-29723500D01*
X19815355Y-29723500D01*
X20004644Y-29723500D01*
X20004646Y-29723500D01*
X20189803Y-29684144D01*
X20259564Y-29653083D01*
X20328813Y-29643798D01*
X20360434Y-29653083D01*
X20430197Y-29684144D01*
X20615354Y-29723500D01*
X20615355Y-29723500D01*
X20804644Y-29723500D01*
X20804646Y-29723500D01*
X20989803Y-29684144D01*
X21059564Y-29653083D01*
X21128813Y-29643798D01*
X21160434Y-29653083D01*
X21230197Y-29684144D01*
X21415354Y-29723500D01*
X21415355Y-29723500D01*
X21604644Y-29723500D01*
X21604646Y-29723500D01*
X21789803Y-29684144D01*
X21789805Y-29684142D01*
X21791409Y-29683802D01*
X21861076Y-29689118D01*
X21904871Y-29717411D01*
X22366248Y-30178788D01*
X22376073Y-30191051D01*
X22376294Y-30190869D01*
X22381265Y-30196878D01*
X22402094Y-30216437D01*
X22431686Y-30244226D01*
X22452580Y-30265120D01*
X22458062Y-30269373D01*
X22462494Y-30273157D01*
X22496469Y-30305062D01*
X22514027Y-30314714D01*
X22530284Y-30325393D01*
X22546115Y-30337673D01*
X22565788Y-30346186D01*
X22588884Y-30356182D01*
X22594128Y-30358750D01*
X22634959Y-30381197D01*
X22647574Y-30384435D01*
X22654356Y-30386177D01*
X22672770Y-30392481D01*
X22691155Y-30400438D01*
X22737208Y-30407732D01*
X22742877Y-30408906D01*
X22788032Y-30420500D01*
X22808067Y-30420500D01*
X22827464Y-30422026D01*
X22847247Y-30425160D01*
X22893635Y-30420775D01*
X22899473Y-30420500D01*
X25659257Y-30420500D01*
X25674877Y-30422224D01*
X25674904Y-30421939D01*
X25682660Y-30422671D01*
X25682667Y-30422673D01*
X25751814Y-30420500D01*
X25781350Y-30420500D01*
X25788228Y-30419630D01*
X25794041Y-30419172D01*
X25840627Y-30417709D01*
X25859869Y-30412117D01*
X25878912Y-30408174D01*
X25898792Y-30405664D01*
X25942122Y-30388507D01*
X25947646Y-30386617D01*
X25951396Y-30385527D01*
X25992390Y-30373618D01*
X26009629Y-30363422D01*
X26027103Y-30354862D01*
X26045727Y-30347488D01*
X26045727Y-30347487D01*
X26045732Y-30347486D01*
X26083449Y-30320082D01*
X26088305Y-30316892D01*
X26128420Y-30293170D01*
X26142589Y-30278999D01*
X26157379Y-30266368D01*
X26173587Y-30254594D01*
X26203299Y-30218676D01*
X26207212Y-30214376D01*
X26547785Y-29873803D01*
X26560041Y-29863987D01*
X26559858Y-29863765D01*
X26565875Y-29858787D01*
X26565874Y-29858787D01*
X26565877Y-29858786D01*
X26590251Y-29832829D01*
X26613227Y-29808364D01*
X26623671Y-29797918D01*
X26634120Y-29787471D01*
X26638379Y-29781978D01*
X26642152Y-29777561D01*
X26674062Y-29743582D01*
X26683713Y-29726024D01*
X26694396Y-29709761D01*
X26706673Y-29693936D01*
X26725185Y-29651153D01*
X26727738Y-29645941D01*
X26750197Y-29605092D01*
X26755180Y-29585680D01*
X26761481Y-29567280D01*
X26769437Y-29548896D01*
X26776729Y-29502852D01*
X26777906Y-29497171D01*
X26789500Y-29452019D01*
X26789500Y-29431983D01*
X26791027Y-29412582D01*
X26794160Y-29392804D01*
X26789775Y-29346415D01*
X26789500Y-29340577D01*
X26789500Y-29187516D01*
X26809185Y-29120477D01*
X26861989Y-29074722D01*
X26874488Y-29069813D01*
X26933334Y-29050314D01*
X27082656Y-28958212D01*
X27133316Y-28907551D01*
X27194637Y-28874067D01*
X27264329Y-28879051D01*
X27320262Y-28920922D01*
X27344680Y-28986386D01*
X27344993Y-28996023D01*
X27307797Y-34835733D01*
X27287686Y-34902646D01*
X27234592Y-34948063D01*
X27181748Y-34958926D01*
X12324726Y-34713031D01*
X12258021Y-34692240D01*
X12213147Y-34638686D01*
X12202781Y-34588261D01*
X12215160Y-32644713D01*
X14496000Y-32644713D01*
X14511418Y-32796338D01*
X14572299Y-32990381D01*
X14572304Y-32990391D01*
X14671005Y-33168215D01*
X14671005Y-33168216D01*
X14803478Y-33322530D01*
X14803479Y-33322531D01*
X14964304Y-33447018D01*
X15146907Y-33536589D01*
X15246000Y-33562244D01*
X15246000Y-32760110D01*
X15270457Y-32799610D01*
X15359962Y-32867201D01*
X15467840Y-32897895D01*
X15579521Y-32887546D01*
X15679922Y-32837552D01*
X15746000Y-32765069D01*
X15746000Y-33567365D01*
X15747944Y-33567069D01*
X15747945Y-33567069D01*
X15938660Y-33496436D01*
X15938664Y-33496434D01*
X16111267Y-33388850D01*
X16258668Y-33248735D01*
X16258669Y-33248733D01*
X16374856Y-33081804D01*
X16455059Y-32894907D01*
X16496000Y-32695690D01*
X16496000Y-32644713D01*
X23136000Y-32644713D01*
X23151418Y-32796338D01*
X23212299Y-32990381D01*
X23212304Y-32990391D01*
X23311005Y-33168215D01*
X23311005Y-33168216D01*
X23443478Y-33322530D01*
X23443479Y-33322531D01*
X23604304Y-33447018D01*
X23786907Y-33536589D01*
X23886000Y-33562244D01*
X23886000Y-32760110D01*
X23910457Y-32799610D01*
X23999962Y-32867201D01*
X24107840Y-32897895D01*
X24219521Y-32887546D01*
X24319922Y-32837552D01*
X24386000Y-32765069D01*
X24386000Y-33567366D01*
X24387944Y-33567069D01*
X24387945Y-33567069D01*
X24578660Y-33496436D01*
X24578664Y-33496434D01*
X24751267Y-33388850D01*
X24898668Y-33248735D01*
X24898669Y-33248733D01*
X25014856Y-33081804D01*
X25095059Y-32894907D01*
X25136000Y-32695690D01*
X25136000Y-32544000D01*
X24436000Y-32544000D01*
X24436000Y-32044000D01*
X25136000Y-32044000D01*
X25136000Y-31943286D01*
X25120581Y-31791661D01*
X25059700Y-31597618D01*
X25059695Y-31597608D01*
X24960994Y-31419784D01*
X24960994Y-31419783D01*
X24828521Y-31265469D01*
X24828520Y-31265468D01*
X24667695Y-31140981D01*
X24485093Y-31051411D01*
X24386000Y-31025753D01*
X24386000Y-31827889D01*
X24361543Y-31788390D01*
X24272038Y-31720799D01*
X24164160Y-31690105D01*
X24052479Y-31700454D01*
X23952078Y-31750448D01*
X23886000Y-31822930D01*
X23886000Y-31020633D01*
X23884053Y-31020931D01*
X23884047Y-31020933D01*
X23693342Y-31091562D01*
X23693335Y-31091565D01*
X23520732Y-31199149D01*
X23373331Y-31339264D01*
X23373330Y-31339266D01*
X23257143Y-31506195D01*
X23176940Y-31693092D01*
X23136000Y-31892309D01*
X23136000Y-32044000D01*
X23836000Y-32044000D01*
X23836000Y-32544000D01*
X23136000Y-32544000D01*
X23136000Y-32644713D01*
X16496000Y-32644713D01*
X16496000Y-32544000D01*
X15796000Y-32544000D01*
X15796000Y-32044000D01*
X16496000Y-32044000D01*
X16496000Y-31943286D01*
X16480581Y-31791661D01*
X16419700Y-31597618D01*
X16419695Y-31597608D01*
X16320994Y-31419784D01*
X16320994Y-31419783D01*
X16188521Y-31265469D01*
X16188520Y-31265468D01*
X16027695Y-31140981D01*
X15845093Y-31051411D01*
X15746000Y-31025753D01*
X15746000Y-31827889D01*
X15721543Y-31788390D01*
X15632038Y-31720799D01*
X15524160Y-31690105D01*
X15412479Y-31700454D01*
X15312078Y-31750448D01*
X15246000Y-31822930D01*
X15246000Y-31020633D01*
X15244053Y-31020931D01*
X15244047Y-31020933D01*
X15053342Y-31091562D01*
X15053335Y-31091565D01*
X14880732Y-31199149D01*
X14733331Y-31339264D01*
X14733330Y-31339266D01*
X14617143Y-31506195D01*
X14536940Y-31693092D01*
X14496000Y-31892309D01*
X14496000Y-32044000D01*
X15196000Y-32044000D01*
X15196000Y-32544000D01*
X14496000Y-32544000D01*
X14496000Y-32644713D01*
X12215160Y-32644713D01*
X12329000Y-14772000D01*
X12329000Y-15317000D01*
G37*
%TD.AperFunction*%
%TA.AperFunction,Conductor*%
G36*
X23268649Y-26444877D02*
G01*
X23309179Y-26501790D01*
X23316000Y-26542350D01*
X23316000Y-27325000D01*
X23296315Y-27392039D01*
X23243511Y-27437794D01*
X23192000Y-27449000D01*
X23190500Y-27449000D01*
X23123461Y-27429315D01*
X23077706Y-27376511D01*
X23066500Y-27325000D01*
X23066499Y-26544950D01*
X23083109Y-26482954D01*
X23084612Y-26480351D01*
X23135176Y-26432136D01*
X23203783Y-26418911D01*
X23268649Y-26444877D01*
G37*
%TD.AperFunction*%
%TA.AperFunction,Conductor*%
G36*
X25052654Y-22028107D02*
G01*
X25103481Y-22074287D01*
X25121287Y-22103155D01*
X25215304Y-22197172D01*
X25248789Y-22258495D01*
X25243805Y-22328187D01*
X25215305Y-22372534D01*
X25121682Y-22466157D01*
X25029643Y-22615375D01*
X25029641Y-22615380D01*
X24974494Y-22781802D01*
X24974493Y-22781809D01*
X24964000Y-22884513D01*
X24964000Y-22947000D01*
X26290000Y-22947000D01*
X26357039Y-22966685D01*
X26402794Y-23019489D01*
X26414000Y-23071000D01*
X26414000Y-23323000D01*
X26394315Y-23390039D01*
X26341511Y-23435794D01*
X26290000Y-23447000D01*
X24964001Y-23447000D01*
X24964001Y-23509486D01*
X24974494Y-23612197D01*
X25029641Y-23778619D01*
X25029643Y-23778624D01*
X25121684Y-23927845D01*
X25245654Y-24051815D01*
X25372532Y-24130074D01*
X25419256Y-24182022D01*
X25430479Y-24250985D01*
X25414823Y-24297612D01*
X25372996Y-24370057D01*
X25342815Y-24422335D01*
X25336820Y-24432718D01*
X25336818Y-24432722D01*
X25287659Y-24584019D01*
X25278326Y-24612744D01*
X25258540Y-24801000D01*
X25278326Y-24989256D01*
X25278823Y-24990786D01*
X25336820Y-25169282D01*
X25360503Y-25210302D01*
X25376976Y-25278202D01*
X25354124Y-25344230D01*
X25318213Y-25377841D01*
X25245347Y-25422785D01*
X25245343Y-25422788D01*
X25121289Y-25546842D01*
X25029187Y-25696163D01*
X25029185Y-25696168D01*
X25020900Y-25721170D01*
X24974001Y-25862703D01*
X24974001Y-25862704D01*
X24974000Y-25862704D01*
X24963500Y-25965483D01*
X24963500Y-26590501D01*
X24963501Y-26590519D01*
X24972879Y-26682316D01*
X24960109Y-26751009D01*
X24912228Y-26801893D01*
X24844438Y-26818813D01*
X24778262Y-26796397D01*
X24773620Y-26792973D01*
X24667695Y-26710981D01*
X24485093Y-26621411D01*
X24386000Y-26595753D01*
X24386000Y-27397889D01*
X24361543Y-27358390D01*
X24272038Y-27290799D01*
X24164160Y-27260105D01*
X24052479Y-27270454D01*
X23952078Y-27320448D01*
X23886000Y-27392930D01*
X23886000Y-26574791D01*
X23871184Y-26551969D01*
X23866000Y-26516488D01*
X23866000Y-26426172D01*
X23865999Y-26426155D01*
X23859598Y-26366627D01*
X23859596Y-26366620D01*
X23809354Y-26231913D01*
X23809350Y-26231906D01*
X23723190Y-26116812D01*
X23723187Y-26116809D01*
X23608093Y-26030649D01*
X23608086Y-26030645D01*
X23473379Y-25980403D01*
X23473372Y-25980401D01*
X23413844Y-25974000D01*
X23328921Y-25974000D01*
X23261882Y-25954315D01*
X23216127Y-25901511D01*
X23206183Y-25832353D01*
X23235208Y-25768797D01*
X23265801Y-25743268D01*
X23290500Y-25728660D01*
X23303166Y-25721170D01*
X23317335Y-25706999D01*
X23332125Y-25694368D01*
X23348333Y-25682594D01*
X23378045Y-25646676D01*
X23381958Y-25642376D01*
X24018533Y-25005802D01*
X24030788Y-24995986D01*
X24030605Y-24995764D01*
X24036612Y-24990792D01*
X24036623Y-24990786D01*
X24068576Y-24956759D01*
X24083973Y-24940364D01*
X24094417Y-24929918D01*
X24104866Y-24919471D01*
X24109125Y-24913978D01*
X24112898Y-24909561D01*
X24144808Y-24875582D01*
X24154459Y-24858024D01*
X24165142Y-24841761D01*
X24177419Y-24825936D01*
X24195931Y-24783153D01*
X24198484Y-24777941D01*
X24220943Y-24737092D01*
X24225926Y-24717680D01*
X24232227Y-24699280D01*
X24240183Y-24680896D01*
X24247475Y-24634852D01*
X24248652Y-24629171D01*
X24260246Y-24584019D01*
X24260246Y-24563983D01*
X24261773Y-24544582D01*
X24264906Y-24524804D01*
X24260521Y-24478415D01*
X24260246Y-24472577D01*
X24260246Y-23337738D01*
X24261970Y-23322124D01*
X24261684Y-23322097D01*
X24262418Y-23314334D01*
X24260246Y-23245203D01*
X24260246Y-23215651D01*
X24260246Y-23215650D01*
X24259375Y-23208759D01*
X24258918Y-23202945D01*
X24257455Y-23156372D01*
X24251868Y-23137144D01*
X24247920Y-23118084D01*
X24245409Y-23098204D01*
X24228258Y-23054887D01*
X24226365Y-23049358D01*
X24213364Y-23004609D01*
X24213362Y-23004606D01*
X24203169Y-22987371D01*
X24194607Y-22969894D01*
X24187234Y-22951272D01*
X24187233Y-22951270D01*
X24187232Y-22951268D01*
X24180273Y-22941691D01*
X24156795Y-22875888D01*
X24172620Y-22807834D01*
X24222726Y-22759139D01*
X24254807Y-22747519D01*
X24284803Y-22741144D01*
X24457730Y-22664151D01*
X24610871Y-22552888D01*
X24737533Y-22412216D01*
X24832179Y-22248284D01*
X24880013Y-22101066D01*
X24919449Y-22043392D01*
X24983807Y-22016193D01*
X25052654Y-22028107D01*
G37*
%TD.AperFunction*%
%TA.AperFunction,Conductor*%
G36*
X22071039Y-16429185D02*
G01*
X22116794Y-16481989D01*
X22128000Y-16533500D01*
X22128000Y-16584855D01*
X22138413Y-16686776D01*
X22193137Y-16851922D01*
X22193142Y-16851933D01*
X22284471Y-16999999D01*
X22284474Y-17000003D01*
X22407496Y-17123025D01*
X22407500Y-17123028D01*
X22555566Y-17214357D01*
X22555569Y-17214358D01*
X22555575Y-17214362D01*
X22720725Y-17269087D01*
X22822652Y-17279500D01*
X22822657Y-17279500D01*
X23409343Y-17279500D01*
X23409348Y-17279500D01*
X23511275Y-17269087D01*
X23557652Y-17253718D01*
X23627481Y-17251316D01*
X23687523Y-17287047D01*
X23718716Y-17349567D01*
X23714365Y-17410425D01*
X23704001Y-17441702D01*
X23704000Y-17441704D01*
X23693500Y-17544483D01*
X23693500Y-18169501D01*
X23693501Y-18169519D01*
X23704000Y-18272296D01*
X23704001Y-18272299D01*
X23759185Y-18438831D01*
X23759187Y-18438836D01*
X23851289Y-18588157D01*
X23944951Y-18681819D01*
X23978436Y-18743142D01*
X23973452Y-18812834D01*
X23944951Y-18857181D01*
X23869951Y-18932181D01*
X23808628Y-18965666D01*
X23782270Y-18968500D01*
X23198738Y-18968500D01*
X23183121Y-18966776D01*
X23183094Y-18967062D01*
X23175332Y-18966327D01*
X23106204Y-18968500D01*
X23076650Y-18968500D01*
X23075929Y-18968590D01*
X23069757Y-18969369D01*
X23063945Y-18969826D01*
X23017373Y-18971290D01*
X23017372Y-18971290D01*
X22998129Y-18976881D01*
X22979079Y-18980825D01*
X22959211Y-18983334D01*
X22915884Y-19000488D01*
X22910358Y-19002379D01*
X22865614Y-19015379D01*
X22865610Y-19015381D01*
X22848366Y-19025579D01*
X22830905Y-19034133D01*
X22812274Y-19041510D01*
X22812263Y-19041517D01*
X22792576Y-19055820D01*
X22726769Y-19079298D01*
X22719693Y-19079500D01*
X21761875Y-19079500D01*
X21761869Y-19079501D01*
X21702262Y-19085908D01*
X21567417Y-19136202D01*
X21567410Y-19136206D01*
X21452201Y-19222452D01*
X21452198Y-19222455D01*
X21365952Y-19337664D01*
X21365948Y-19337671D01*
X21319267Y-19462832D01*
X21315655Y-19472517D01*
X21309246Y-19532127D01*
X21309246Y-19532134D01*
X21309246Y-19532135D01*
X21309246Y-19986701D01*
X21289561Y-20053740D01*
X21236757Y-20099495D01*
X21167599Y-20109439D01*
X21104043Y-20080414D01*
X21069064Y-20030033D01*
X21053355Y-19987915D01*
X21053350Y-19987906D01*
X20967190Y-19872812D01*
X20967187Y-19872809D01*
X20852093Y-19786649D01*
X20852086Y-19786645D01*
X20717379Y-19736403D01*
X20717372Y-19736401D01*
X20657844Y-19730000D01*
X19810000Y-19730000D01*
X19810000Y-22006000D01*
X19790315Y-22073039D01*
X19737511Y-22118794D01*
X19686000Y-22130000D01*
X19434000Y-22130000D01*
X19366961Y-22110315D01*
X19321206Y-22057511D01*
X19310000Y-22006000D01*
X19310000Y-19730000D01*
X18462155Y-19730000D01*
X18402627Y-19736401D01*
X18402620Y-19736403D01*
X18267913Y-19786645D01*
X18267906Y-19786649D01*
X18152812Y-19872809D01*
X18152809Y-19872812D01*
X18066649Y-19987906D01*
X18066643Y-19987918D01*
X18050426Y-20031397D01*
X18008555Y-20087331D01*
X17943090Y-20111747D01*
X17874817Y-20096895D01*
X17825412Y-20047489D01*
X17810245Y-19988065D01*
X17810245Y-19532128D01*
X17803837Y-19472517D01*
X17800225Y-19462832D01*
X17795241Y-19393140D01*
X17828726Y-19331817D01*
X17890050Y-19298333D01*
X17916398Y-19295499D01*
X18468008Y-19295499D01*
X18468016Y-19295498D01*
X18468019Y-19295498D01*
X18524302Y-19289748D01*
X18570797Y-19284999D01*
X18737334Y-19229814D01*
X18886656Y-19137712D01*
X19010712Y-19013656D01*
X19012752Y-19010347D01*
X19014745Y-19008555D01*
X19015193Y-19007989D01*
X19015289Y-19008065D01*
X19064694Y-18963623D01*
X19133656Y-18952395D01*
X19197740Y-18980234D01*
X19223829Y-19010339D01*
X19225681Y-19013341D01*
X19225683Y-19013344D01*
X19349654Y-19137315D01*
X19498875Y-19229356D01*
X19498880Y-19229358D01*
X19665302Y-19284505D01*
X19665309Y-19284506D01*
X19768019Y-19294999D01*
X19817999Y-19294998D01*
X19818000Y-19294998D01*
X19818000Y-18320000D01*
X20318000Y-18320000D01*
X20318000Y-19294999D01*
X20367972Y-19294999D01*
X20367986Y-19294998D01*
X20470697Y-19284505D01*
X20637119Y-19229358D01*
X20637124Y-19229356D01*
X20786345Y-19137315D01*
X20910315Y-19013345D01*
X21002356Y-18864124D01*
X21002358Y-18864119D01*
X21057505Y-18697697D01*
X21057506Y-18697690D01*
X21067999Y-18594986D01*
X21068000Y-18594973D01*
X21068000Y-18320000D01*
X20318000Y-18320000D01*
X19818000Y-18320000D01*
X19818000Y-16845000D01*
X20318000Y-16845000D01*
X20318000Y-17820000D01*
X21067999Y-17820000D01*
X21067999Y-17545028D01*
X21067998Y-17545013D01*
X21057505Y-17442302D01*
X21002358Y-17275880D01*
X21002356Y-17275875D01*
X20910315Y-17126654D01*
X20786345Y-17002684D01*
X20637124Y-16910643D01*
X20637119Y-16910641D01*
X20470697Y-16855494D01*
X20470690Y-16855493D01*
X20367986Y-16845000D01*
X20318000Y-16845000D01*
X19818000Y-16845000D01*
X19817999Y-16844999D01*
X19768029Y-16845000D01*
X19768011Y-16845001D01*
X19665302Y-16855494D01*
X19498880Y-16910641D01*
X19498875Y-16910643D01*
X19349654Y-17002684D01*
X19225683Y-17126655D01*
X19225679Y-17126660D01*
X19223826Y-17129665D01*
X19222018Y-17131290D01*
X19221202Y-17132323D01*
X19221025Y-17132183D01*
X19171874Y-17176385D01*
X19102911Y-17187601D01*
X19038831Y-17159752D01*
X19012753Y-17129653D01*
X19012737Y-17129628D01*
X19010712Y-17126344D01*
X18886656Y-17002288D01*
X18758902Y-16923489D01*
X18712179Y-16871542D01*
X18700956Y-16802579D01*
X18728800Y-16738497D01*
X18736308Y-16730281D01*
X19020771Y-16445819D01*
X19082094Y-16412334D01*
X19108452Y-16409500D01*
X22004000Y-16409500D01*
X22071039Y-16429185D01*
G37*
%TD.AperFunction*%
%TD*%
%TA.AperFunction,Conductor*%
%TO.N,GND*%
G36*
X15096709Y-14700290D02*
G01*
X15095315Y-14705039D01*
X15042511Y-14750794D01*
X14991000Y-14762000D01*
X14624998Y-14762000D01*
X14624980Y-14762001D01*
X14522203Y-14772500D01*
X14522200Y-14772501D01*
X14355668Y-14827685D01*
X14355663Y-14827687D01*
X14206342Y-14919789D01*
X14082289Y-15043842D01*
X13990187Y-15193163D01*
X13990186Y-15193166D01*
X13949151Y-15317000D01*
X12329000Y-15317000D01*
X12329000Y-14682000D01*
X15115000Y-14682000D01*
X15096709Y-14700290D01*
G37*
%TD.AperFunction*%
%TD*%
%TA.AperFunction,Conductor*%
%TO.N,GND*%
G36*
X19357039Y-12161685D02*
G01*
X19402794Y-12214489D01*
X19414000Y-12266000D01*
X19414000Y-14558000D01*
X19394315Y-14625039D01*
X19341511Y-14670794D01*
X19290000Y-14682000D01*
X12329000Y-14682000D01*
X12329000Y-12266000D01*
X12348685Y-12198961D01*
X12401489Y-12153206D01*
X12453000Y-12142000D01*
X19290000Y-12142000D01*
X19357039Y-12161685D01*
G37*
%TD.AperFunction*%
%TD*%
M02*
